<svg id="Layer_1" data-name="Layer 1" xmlns="http://www.w3.org/2000/svg" viewBox="0 0 400 400"><title>Halloween Isometric Icons Set - Scene 6</title><path d="M267.3,171.73a4.46,4.46,0,0,1-.63,0l-19-3.49a3.5,3.5,0,0,1-2.35-5.27l14.14-23a3.47,3.47,0,0,1,2.36-1.61,3.34,3.34,0,0,1,.62-.06,3.5,3.5,0,0,1,2.15.74h0a4.9,4.9,0,0,0,2.51.8c1.41,0,2.79-.9,4.1-2.67,1.65-2.26,2-4.76,2.32-7.41.52-4.11,1.32-10.31,10-10.66H284a9.61,9.61,0,0,1,7.41,3.25c2.08,2.35,3,5.61,3.41,8.59a23.88,23.88,0,0,1,12.46-4.06,17,17,0,0,1,3.91.45c4.43,1.07,7.15,4.06,7.25,8,.16,6-5.69,12.5-14.13,16.2a8,8,0,0,0,3,1.34c5.13,1.2,8.86,6.07,8.31,10.84-.22,1.9-1.78,8.06-12.6,8.06a112.11,112.11,0,0,1-13.38-1,94.64,94.64,0,0,0-10.92-.88,28.66,28.66,0,0,0-10.23,1.67A3.38,3.38,0,0,1,267.3,171.73Z" fill="#feffff"/><path d="M284,122.55c9.29,0,7.4,15.49,7.4,15.49s7.41-7.72,15.88-7.71a13.16,13.16,0,0,1,3.09.36c9.68,2.32,3.1,14.7-11.23,19,0,0,.78,5,7.36,6.58s9.68,12-3.49,12c-8.77,0-16.64-1.89-24.3-1.89a32.26,32.26,0,0,0-11.45,1.89l-19-3.48,14.13-23a8.28,8.28,0,0,0,4.66,1.54c2.07,0,4.56-.91,6.91-4.1,5.42-7.35,0-16.26,9.68-16.64H284m0-7h-.63c-5,.2-8.62,2-10.88,5.49-1.78,2.71-2.15,5.64-2.49,8.22-.29,2.29-.54,4.26-1.66,5.78a3.59,3.59,0,0,1-1.29,1.25,1.38,1.38,0,0,1-.45-.15,6.15,6.15,0,0,0-4.25-1.59,7.12,7.12,0,0,0-1.12.08,6.82,6.82,0,0,0-4.79,3.45l-14.14,23a7,7,0,0,0,4.7,10.55l19,3.49a6.71,6.71,0,0,0,1.26.11,7,7,0,0,0,2.44-.43,25,25,0,0,1,9-1.46,91.55,91.55,0,0,1,10.51.85,115.29,115.29,0,0,0,13.79,1c10.9,0,15.45-5.76,16.07-11.15a13.59,13.59,0,0,0-6.89-13c6.13-4.35,9.9-10.17,9.75-15.87-.15-5.54-4-9.88-9.94-11.31a20,20,0,0,0-4.72-.55,24.43,24.43,0,0,0-10.08,2.3,16.4,16.4,0,0,0-3.17-5.65,13,13,0,0,0-10-4.43Z" fill="#0e0d0d"/><path d="M231.85,333a44.14,44.14,0,0,1-11-1.54L215.3,330c-13-3.43-19.55-5.15-30.26-5.15-1.78,0-3.64,0-5.69.14l-2.33.11c-3.78.18-7.34.35-10.62.35h-.05c-5.8,0-17.25,0-21.1-9.69h-.11c-6.08,0-21.41-.73-32.44-7.55-6.55-4-4.31-9.49-1.93-15.26a77.65,77.65,0,0,0,5-15.86,213.25,213.25,0,0,1,6.48-24.26,206.21,206.21,0,0,0,6.67-25.26c1.74-9.44,2.59-14.88,3-17.92-6.13.38-9.85,4.15-13.79,8.15-3.77,3.82-7.66,7.77-13.49,7.77a14.48,14.48,0,0,1-5.32-1.08,9.23,9.23,0,0,1-6.07-6.74c-1.15-5.32,2.37-12,6.14-17.35a31.07,31.07,0,0,1-4.9.42c-9.87,0-12.27-5.78-12.83-9.22A10.37,10.37,0,0,1,84,183.11c3.57-4.26,10.53-6.23,16.18-7.14-2.79-3-5.45-6.91-5.72-11.21-.16-2.61.51-6.48,4.65-10,2.74-2.35,5.34-3.49,8-3.49,5.44,0,8.75,4.83,11.67,9.1,1.88,2.76,3.83,5.61,6,6.72a8.93,8.93,0,0,0,4.1,1.12c4.7,0,9-5.27,11.83-14.47.95-3.08,1.39-8,1.91-13.67,1.81-19.91,4.83-53.23,37.58-67.54A61.54,61.54,0,0,1,204.7,67c13.72,0,26.4,5.66,36.65,16.38,9.11,9.53,16,22.51,19.81,37.57,8.24,32.27,12.67,61.52,14.81,97.82,1.89,32.19,13.72,79.78,13.83,80.26a3.49,3.49,0,0,1-1.06,3.46c-.07.06-7.32,6.56-11.08,10.31-2.11,2.11-5,4.54-8.48,4.54-3,0-5.6-1.73-7.78-5.12a5.74,5.74,0,0,0-.69-.9c-.61.4-2.08,1.79-5,6.62S246.66,333,231.85,333Z" fill="#feffff"/><path d="M204.7,70.47c27.3,0,46,23.71,53.06,51.31,8.91,34.84,12.78,64.26,14.71,97.16s13.94,80.91,13.94,80.91-7.36,6.58-11.23,10.45c-2.09,2.09-4.07,3.51-6,3.51-1.64,0-3.24-1-4.84-3.51-1.16-1.81-2.32-2.63-3.52-2.63-2.41,0-5,3.27-8.09,8.43-3.73,6.22-8.95,13.43-20.88,13.43a40,40,0,0,1-10.09-1.43c-16.91-4.39-24.07-6.72-36.72-6.72-1.82,0-3.76.05-5.86.14-4.63.22-8.93.46-12.78.46-10,0-16.9-1.65-18.57-9.75,0,0-1,.06-2.69.06-5.91,0-20.36-.7-30.6-7-6.78-4.19,1.16-9.29,4.64-27.49s9.68-30.58,13.16-49.55,3.49-22.06,3.49-22.06H132c-14.05.68-17.79,15.93-27.32,15.93a11.13,11.13,0,0,1-4-.83c-12.77-5,8.52-27.1,8.52-27.1s-7.88,3.18-14.63,3.18c-4.55,0-8.59-1.45-9.37-6.28-1.94-12,23.61-12.38,23.61-12.38s-18.19-12-7.35-21.3c2.19-1.87,4.05-2.64,5.68-2.64,6.47,0,9.51,12,16,15.42a12.32,12.32,0,0,0,5.73,1.52c6.05,0,11.63-5.37,15.18-16.94,4.64-15.16-2.32-61.61,37.55-79a57.81,57.81,0,0,1,23.19-5.25m0-7a65.07,65.07,0,0,0-26,5.83c-34.65,15.14-37.79,49.75-39.67,70.43-.5,5.49-.93,10.23-1.76,13-2.24,7.28-5.57,12-8.49,12a5.48,5.48,0,0,1-2.48-.72c-1.34-.7-3.19-3.42-4.69-5.6-3.23-4.73-7.26-10.62-14.55-10.62-3.44,0-6.88,1.45-10.24,4.33-5.23,4.48-6.07,9.49-5.86,12.9a18.76,18.76,0,0,0,3,8.74c-4.8,1.33-9.65,3.52-12.68,7.14a13.75,13.75,0,0,0-3.1,11.33c1.15,7.15,6.59,11.59,14.68,12.11-2.46,4.67-4,9.72-3.06,14.22A12.8,12.8,0,0,0,98,227.78a17.89,17.89,0,0,0,6.6,1.32c7.29,0,12.11-4.89,16-8.81,2.62-2.66,4.72-4.67,7-5.88-.49,3.05-1.19,7.14-2.19,12.56a199.37,199.37,0,0,1-6.57,24.84,216.23,216.23,0,0,0-6.58,24.66,73.22,73.22,0,0,1-4.78,15.18c-1.4,3.39-2.5,6.08-2.63,9s.78,7.35,6,10.55c10.41,6.43,23.86,7.85,32.14,8,5.37,9.71,17.68,9.71,23.4,9.71,3.36,0,7-.17,10.78-.35l2.33-.11c2-.1,3.81-.14,5.53-.14,10.26,0,16.65,1.68,29.38,5l5.58,1.47a47.36,47.36,0,0,0,11.85,1.65c16.79,0,23.86-11.79,26.88-16.82.73-1.21,1.33-2.15,1.84-2.89a11.62,11.62,0,0,0,8.61,4c4.84,0,8.57-3.18,10.95-5.56,3.69-3.69,10.87-10.12,10.95-10.19a7,7,0,0,0,2.12-6.91c-.12-.47-11.86-47.76-13.74-79.62-2.15-36.53-6.61-66-14.91-98.48-4-15.64-11.14-29.16-20.67-39.12C233,69.51,219.4,63.47,204.7,63.47Z" fill="#0e0d0d"/><path d="M147.83,312.23s2.32-11.22,4.26-34.06" fill="none" stroke="#0e0d0d" stroke-linecap="round" stroke-linejoin="round" stroke-width="3.85"/><path d="M269.38,313.8S259.31,272,257,237.52" fill="none" stroke="#0e0d0d" stroke-linecap="round" stroke-linejoin="round" stroke-width="3.85"/><line x1="152.09" y1="270.04" x2="152.09" y2="263.46" fill="none" stroke="#0e0d0d" stroke-linecap="round" stroke-linejoin="round" stroke-width="3.85"/><ellipse cx="190.47" cy="151" rx="28.46" ry="18.87" transform="translate(21.26 325.51) rotate(-84.29)" stroke-width="4.45" stroke="#0e0d0d" stroke-linecap="round" stroke-linejoin="round" fill="#0e0d0d"/><ellipse cx="239.26" cy="144.6" rx="16.59" ry="27.71" transform="translate(-26.35 57.38) rotate(-12.97)" stroke-width="4.45" stroke="#0e0d0d" stroke-linecap="round" stroke-linejoin="round" fill="#0e0d0d"/></svg>