<svg id="Layer_1" data-name="Layer 1" xmlns="http://www.w3.org/2000/svg" viewBox="0 0 400 400"><title>Halloween Isometric Icons Set - Scene 1</title><path d="M213.43,345.58c-1,0-2,0-2.94,0-25-.77-35.42-3.74-56.21-9.66-7.56-2.15-16.14-4.59-27.34-7.48C82.53,317,73.55,291.91,75.25,278.92c.58-4.44,0-11.91-.55-19.82-.93-12.72-2-27.13.61-37.82,4.73-19.49,21.32-26,40.91-32a377.87,377.87,0,0,1,38.08-9.59,2.84,2.84,0,0,1,.58-.05H155l102,4.66a3.5,3.5,0,0,1,.91.18c34,11.75,55.62,29.23,64.29,51.94,9.56,25,.26,48-6.14,59.5C299,326.58,249.49,345.58,213.43,345.58Z" fill="#181819"/><path d="M154.88,182.83l102,4.67c74.72,25.83,73.93,75.32,56.38,106.8-17.05,30.61-66.31,48-99.86,48-1,0-1.91,0-2.85,0-33.54-1-40.77-6.19-82.83-17s-50.84-34.06-49.29-45.94-4.13-40.25,0-57.29S96,198.82,117.17,192.33a370.43,370.43,0,0,1,37.71-9.5m0-6.47a6.42,6.42,0,0,0-1.16.11,370.9,370.9,0,0,0-38.45,9.68c-20.55,6.29-38,13.22-43.1,34.37-2.71,11.18-1.64,25.86-.7,38.81.57,7.74,1.1,15.05.57,19.17-1.83,14.05,7.5,41,54.09,53,11.16,2.87,19.72,5.31,27.27,7.46,20.38,5.8,31.6,9,57,9.77,1,0,2,.05,3,.05,18.37,0,39.78-4.77,58.72-13.09,15.38-6.76,36-18.88,46.8-38.28a83.84,83.84,0,0,0,9.94-29.22,66.41,66.41,0,0,0-3.6-33c-9-23.64-31.32-41.76-66.26-53.84a6.67,6.67,0,0,0-1.82-.35l-102-4.66Z" fill="#0e0d0d"/><path d="M176.83,296.49a3,3,0,0,1-1-.18c-48.58-16.7-51.2-40.22-51.29-41.21a3.3,3.3,0,0,1,.13-1.25c.08-.25,8.12-25.73,37.26-97,29.72-72.73,49.17-102.4,67.15-102.4A16.84,16.84,0,0,1,237.8,57c20.76,12.46,37.85,52.88,39.47,63.44a5.68,5.68,0,0,1-1.2,4.73c-1.25,1.44-3.22,2.18-5.87,2.18-6.79,0-19-4.86-26.15-8,1.58,10.29,5.46,32.69,12.2,54,9.14,28.95,19.51,88.21,21.08,104.4a3.18,3.18,0,0,1-.51,2.08c-.26.4-6.53,9.84-20.7,17a3.28,3.28,0,0,1-1.47.35Z" fill="#181819"/><path d="M229.06,57.66a13.63,13.63,0,0,1,7.07,2.06c19.35,11.61,36.39,51.09,37.94,61.16.35,2.3-1.23,3.18-3.87,3.18-9,0-30.2-10.15-30.2-10.15s3.87,31,13.16,60.39,19.45,88.26,21,103.74c0,0-5.9,9-19.46,15.91l-77.79-.7c-47.15-16.21-49.12-38.44-49.12-38.44S135.48,230,164.9,158c25.91-63.4,46.41-100.38,64.16-100.38m0-6.48c-19.78,0-39.45,29.28-70.15,104.42-29.19,71.43-37,96.26-37.34,97.28a6.27,6.27,0,0,0-.27,2.51c.11,1.26,1,8,8.37,16.73,9.24,11,24.41,20.15,45.09,27.25a6.5,6.5,0,0,0,2.05.36l77.79.7h.05a6.48,6.48,0,0,0,2.93-.7c14.93-7.58,21.67-17.72,21.95-18.15a6.45,6.45,0,0,0,1-4.16c-1.53-15.76-11.65-74.73-21.22-105.06a369.93,369.93,0,0,1-11.17-47.8c7.23,2.91,16.22,6,22,6,3.63,0,6.44-1.12,8.32-3.32a9,9,0,0,0,2-7.32c-1.68-10.92-19.42-52.77-41-65.73a20,20,0,0,0-10.4-3Z" fill="#0e0d0d"/><path d="M176.83,296.75a3.18,3.18,0,0,1-1.1-.19c-48.74-16.75-51.38-40.44-51.47-41.44a3.64,3.64,0,0,1,.14-1.35c.1-.3,2.41-7.66,9.23-25.88a3.49,3.49,0,0,1,2.69-2.23,3.9,3.9,0,0,1,.58,0,3.5,3.5,0,0,1,2.7,1.27c9,10.89,28.23,25.24,68.71,31.75a41,41,0,0,0,6.49.5c13.73,0,31.35-6.09,52.37-18.1a3.43,3.43,0,0,1,1.73-.47,3.5,3.5,0,0,1,3.45,2.89c2.6,14.6,4.61,27.72,5.25,34.26A3.52,3.52,0,0,1,277,280c-.26.4-6.57,9.9-20.8,17.12a3.64,3.64,0,0,1-1.59.37Z" fill="#f16830"/><path d="M136.9,229.11c9.79,11.84,29.87,26.38,70.85,33a43.77,43.77,0,0,0,7.05.55c15.43,0,34.09-7.13,54.1-18.57,2.69,15.08,4.62,27.89,5.21,34,0,0-5.9,9-19.46,15.91l-77.79-.7c-47.15-16.21-49.12-38.44-49.12-38.44s2.3-7.36,9.16-25.7m0-7a7.68,7.68,0,0,0-1.16.1,7,7,0,0,0-5.39,4.45c-6.85,18.31-9.19,25.76-9.29,26.07a7,7,0,0,0-.29,2.7c.24,2.74,3.82,27.25,53.82,44.44a6.67,6.67,0,0,0,2.21.38l77.79.7h.06a7.11,7.11,0,0,0,3.17-.75c15.06-7.64,21.87-17.89,22.15-18.33a7,7,0,0,0,1.11-4.5c-.64-6.62-2.67-19.85-5.29-34.54A7,7,0,0,0,265.43,238c-20.48,11.7-37.52,17.64-50.63,17.64a37.43,37.43,0,0,1-5.93-.46c-39.4-6.33-58-20.09-66.57-30.52a7,7,0,0,0-5.4-2.54Z" fill="#0e0d0d"/><path d="M218.07,313.2a88.24,88.24,0,0,1-42.65-10.66,3.52,3.52,0,0,1-1.82-2.83c-.06-.94-1.58-23.46,3.07-57a3.47,3.47,0,0,1,2.27-2.8,3.28,3.28,0,0,1,1.19-.21,3.49,3.49,0,0,1,2.35.9s7.62,6.36,27.1,6.36a135,135,0,0,0,32.66-4.58,3.61,3.61,0,0,1,.86-.1,3.48,3.48,0,0,1,3.45,2.91,458.41,458.41,0,0,0,13.82,55.38,3.51,3.51,0,0,1-1.8,4.22A100.67,100.67,0,0,1,218.07,313.2Z" fill="#e1d8bd"/><path d="M180.13,243.21s8.05,7.26,29.45,7.26c8.8,0,19.84-1.23,33.52-4.68A455,455,0,0,0,257,301.65a97.78,97.78,0,0,1-39,8.05,84.81,84.81,0,0,1-41-10.24s-1.61-22.71,3-56.25m0-7.15a7.32,7.32,0,0,0-2.34.39,7,7,0,0,0-4.58,5.79c-4.69,33.89-3.15,56.76-3.09,57.72a7,7,0,0,0,3.64,5.65,91.61,91.61,0,0,0,44.31,11.09,104.65,104.65,0,0,0,42-8.75,7,7,0,0,0,3.6-8.44,454.12,454.12,0,0,1-13.7-54.9,7,7,0,0,0-6.9-5.82,7.08,7.08,0,0,0-1.71.21,132,132,0,0,1-31.81,4.47c-16.91,0-24.07-5-24.82-5.52a6.56,6.56,0,0,0-4.64-1.89Z" fill="#0e0d0d"/><path d="M191.36,293.51a125.58,125.58,0,0,1-.15-34.3s13.69,6.52,39.5,0c0,0,2,21,7.23,37.16C237.94,296.37,213.25,305.42,191.36,293.51Z" fill="#f16830" stroke="#0e0d0d" stroke-linecap="round" stroke-linejoin="round" stroke-width="3.85"/><path d="M249.18,228.89c-1-21.57-9-57.22-13.22-81.4-5.63-31.85-11.35-40.73-11-20.62s-1.71,96.6-2.19,107.34S249.43,234.06,249.18,228.89Z" fill="#feffff" stroke="#0e0d0d" stroke-linecap="round" stroke-linejoin="round" stroke-width="3.85"/><path d="M292.68,315.74c-24.13,14.14-34.29-.63-27-5.78s22.31-9,33.17-27c13.51-22.43,9.58-27.48,19.14-24.75S325.87,296.27,292.68,315.74Z" fill="#feffff" stroke="#0e0d0d" stroke-linecap="round" stroke-linejoin="round" stroke-width="3.85"/></svg>