<svg id="Layer_1" data-name="Layer 1" xmlns="http://www.w3.org/2000/svg" viewBox="0 0 400 400"><title>Halloween Isometric Icons Set - Scene 18</title><path d="M232.34,307.47a196.74,196.74,0,0,1-41.76-4.61c-41.85-9.1-52.79-25.59-60-36.5-2.13-3.21-4-6-6.11-7.76a12,12,0,0,0-7.73-3.05,14.3,14.3,0,0,0-8.28,3,3.52,3.52,0,0,1-2.27.82,3.45,3.45,0,0,1-1.47-.32,3.51,3.51,0,0,1-2-3.17V220.47a3.5,3.5,0,0,1,1.74-3,42.05,42.05,0,0,1,20.71-5.89c10.72,0,18.69,5.27,21.31,14.11A59.69,59.69,0,0,0,154,241.56l1.41-7.55c-5.88-11-1.95-27.1-1.78-27.8a3.61,3.61,0,0,1,.75-1.44c-6.15-8.55-7.41-23.82-7.55-25.86a3.45,3.45,0,0,1,1.14-2.83,3.4,3.4,0,0,1,.77-.53c-2.24-7.79-6.74-23.46-9-31a20.46,20.46,0,0,0-3.53-6.38c-4.23-5.78-6.47-10.69,3.28-21.26,12.85-13.92,42.67-23.25,77.82-24.35,1.2,0,2.39-.06,3.59-.06,30.94,0,64.05,13.17,69.47,27.62,4.52,12.06,4,39.1,3.85,43.59,4.1,13.43,3,22.25,1.83,31.58-.3,2.38-.61,4.84-.82,7.38-.79,9.51-2.21,25.27-2.82,32a6.08,6.08,0,0,1,1.21,1c3.67,3.72,3.85,13.16,3.71,24.2,0,1.11,0,2.11,0,3,0,5.09-1.62,7.66-3.34,9A34.32,34.32,0,0,1,293,288C289.89,298.92,263.24,307.47,232.34,307.47Z" fill="#e1d8bd"/><path d="M220.87,96c31.76,0,61.71,13.4,66.19,25.35,4.65,12.39,3.62,42.84,3.62,42.84,5.16,16.51,2.06,25.8,1,38.19s-3.1,35.1-3.1,35.1a2.57,2.57,0,0,1,.87-.15c5.23,0,4.29,18.08,4.29,25.43,0,6.13-2.59,6.76-3.67,6.76a2.16,2.16,0,0,1-.45,0s3.09,6.71,0,17.55C287.4,294.9,264.88,304,232.34,304a193.61,193.61,0,0,1-41-4.53c-53.42-11.61-54.19-34.84-64.64-43.53a15.37,15.37,0,0,0-10-3.86,17.73,17.73,0,0,0-10.55,3.86V220.47a38.74,38.74,0,0,1,19-5.41c8.38,0,15.57,3.57,18,11.61A63.35,63.35,0,0,0,156,249.89l3.09-16.51c-6.19-9.81-2.06-26.32-2.06-26.32l3.61-1c-8.77-5.16-10.32-27.35-10.32-27.35l3.1.51s-7.23-25.29-10.33-35.61-13.41-10.84-1-24.26,42.32-22.19,75.36-23.22q1.74-.06,3.48-.06m0-7h0c-1.23,0-2.48,0-3.7.06-36.06,1.13-66.82,10.89-80.28,25.48-5.22,5.65-7.62,10.18-7.79,14.7-.19,4.92,2.27,8.29,4.25,11a17,17,0,0,1,3,5.31c2.06,6.88,6,20.59,8.38,28.83a7,7,0,0,0-1.43,4.75c.23,3.27,1.47,16.62,7,25.81,0,.13-.08.26-.11.39a58.75,58.75,0,0,0-1.49,16.45c-3.82-8.67-12.43-13.75-23.61-13.75a45.66,45.66,0,0,0-22.47,6.36,7,7,0,0,0-3.48,6.05v35.44a7,7,0,0,0,4.1,6.47,7.2,7.2,0,0,0,2.88.61,6.79,6.79,0,0,0,4.56-1.75,10.79,10.79,0,0,1,6-2.19,8.46,8.46,0,0,1,5.49,2.24c1.75,1.46,3.45,4,5.43,7,7.55,11.38,19,28.58,62.21,38a200.38,200.38,0,0,0,42.5,4.69c28.7,0,59.91-7.56,64-22a38.73,38.73,0,0,0,1.32-16c1.74-2,3.07-5.21,3.07-10.21,0-.85,0-1.83,0-2.92.16-12.27-.09-22-4.72-26.71l0,0c.67-7.43,1.92-21.4,2.65-30.13.2-2.47.5-4.89.8-7.24,1.14-9.16,2.33-18.62-1.78-32.47.17-6.42.52-32.07-4.09-44.36-4-10.65-18.51-17.85-26.81-21.19A125.75,125.75,0,0,0,220.87,89Z" fill="#0e0d0d"/><path d="M293.84,271s-49.1,5.26-81.61,5.26-54-23-59-34.82" fill="none" stroke="#0e0d0d" stroke-linecap="round" stroke-linejoin="round" stroke-width="3.85"/><path d="M293.84,233.38s-23.29,18.58-71,22.19-67.49-24.26-67.49-24.26" fill="none" stroke="#0e0d0d" stroke-linecap="round" stroke-linejoin="round" stroke-width="3.85"/><path d="M293.84,213.71s-28,20.75-79.55,13.47c-43.87-6.19-59-24.76-59-24.76" fill="none" stroke="#0e0d0d" stroke-linecap="round" stroke-linejoin="round" stroke-width="3.85"/><path d="M293.84,162.8S284,188,237.52,194.15s-87.23-19-87.23-19" fill="none" stroke="#0e0d0d" stroke-linecap="round" stroke-linejoin="round" stroke-width="3.85"/><path d="M215.84,115.18c-6.19,7.23-35.1,10.84-28.39,0s43.36-12.38,63-6.19-6.71,27.87-55.74,25.29" fill="none" stroke="#0e0d0d" stroke-linecap="round" stroke-linejoin="round" stroke-width="3.85"/><path d="M287.06,121.38a296.91,296.91,0,0,1-33,19.09c-19.61,9.81-25.29,7.23-45.93,5.68s-56.45,2.72-71.75-7.74" fill="none" stroke="#0e0d0d" stroke-linecap="round" stroke-linejoin="round" stroke-width="3.85"/><path d="M215.58,200c.36-6.88,3.36-18.49,16.26-16.43s12.64,32.52,1.81,36.9S214.81,214.88,215.58,200Z" fill="#0e0d0d"/><path d="M258.42,195.29c0-8.36,2.32-17,13.68-15.54s14.19,31.95,1.55,33.76S258.42,204.68,258.42,195.29Z" fill="#0e0d0d"/><path d="M256.35,215.31s-10.83,15-7,18.07,9.29,2.84,10.58-3.36c0,0,4.38,4.39,8.26,0S256.35,215.31,256.35,215.31Z" fill="#0e0d0d"/><polygon points="231.58 263.06 228.59 291.19 280.76 280.6 280.76 260.73 231.58 263.06" fill="#0e0d0d"/></svg>