<svg id="Layer_1" data-name="Layer 1" xmlns="http://www.w3.org/2000/svg" viewBox="0 0 400 400"><title>Halloween Isometric Icons Set - Scene 2</title><path d="M209.81,320.68a39.32,39.32,0,0,1-21.29-5.95H188a89.43,89.43,0,0,1-34.86-7.11c-17.19-7.48-29.9-20.21-37.79-37.83C106,260.09,86,233.87,91.56,191.27a66.88,66.88,0,0,1,57.13-57.38c7.31-5.68,25.87-17.35,54.76-17.35a119.23,119.23,0,0,1,27.65,3.39A42.74,42.74,0,0,1,243,118.32a59.51,59.51,0,0,1,13.24,1.6c23.07,5.31,39.3,21.53,46.94,46.92a115,115,0,0,1,4.6,36.13c5,30.08-1.58,63-16.42,82s-28.67,23-37.64,23a28.07,28.07,0,0,1-9.69-1.65c-7.39,8-17,12.69-28.58,14A51.39,51.39,0,0,1,209.81,320.68Z" fill="#f16830"/><path d="M203.45,120a115.61,115.61,0,0,1,27.75,3.52A38.75,38.75,0,0,1,243,121.82a55.67,55.67,0,0,1,12.45,1.51c53.25,12.26,48.81,79.84,48.81,79.84,4.91,28.94-1.39,61.36-15.66,79.65-13.87,17.77-26.48,21.68-34.88,21.68a22.1,22.1,0,0,1-10.62-2.41c-6.56,8-15.6,13.38-28.05,14.79a47,47,0,0,1-5.22.3,35.68,35.68,0,0,1-20.28-6H188c-13.73,0-52.27-3.7-69.71-43.43h0c-9.09-9.25-28.69-34.48-23.29-76.07,4-31.14,28.91-51.17,55.07-54.49,6.08-4.89,24.27-17.19,53.35-17.19m0-7c-29,0-48.07,11.42-56.17,17.52a72.15,72.15,0,0,0-37.78,18.36,68.63,68.63,0,0,0-21.41,41.9c-5.64,43.46,14.45,70.53,24.36,81,8.27,18.15,21.5,31.29,39.33,39.05a93,93,0,0,0,35.75,7.4,42.9,42.9,0,0,0,22.28,5.95,53.56,53.56,0,0,0,6-.34c11.66-1.33,21.46-5.86,29.2-13.51a31.94,31.94,0,0,0,8.68,1.17c9.75,0,24.67-4.22,40.4-24.37,15.34-19.67,22.21-53.48,17.17-84.36a119.22,119.22,0,0,0-4.76-36.94c-8-26.66-25.14-43.71-49.51-49.32a62.89,62.89,0,0,0-14-1.69,46.47,46.47,0,0,0-11.95,1.5A122,122,0,0,0,203.45,113Z" fill="#0e0d0d"/><path d="M257.48,266.31a198.11,198.11,0,0,0,2.45-20.93c2.32-33.79-17.81-80.24-55-88.76,0,0-37.16,16.26-41,65s9.56,99.94,51.1,95.22c18.57-2.11,29.55-13.13,36.07-28.19Z" fill="none" stroke="#0e0d0d" stroke-linecap="round" stroke-linejoin="round" stroke-width="7"/><path d="M189,310.84s-44.37,10.6-67.6-42,25.85-135.3,78-109" fill="none" stroke="#0e0d0d" stroke-linecap="round" stroke-linejoin="round" stroke-width="7"/><path d="M304.24,203.17s4.44-67.58-48.81-79.84C211.71,113.27,205,156.62,205,156.62s28.64-29.42,68.9-4.64,39.48,99.09,14.71,130.84-45.49,19.26-45.49,19.26" fill="none" stroke="#0e0d0d" stroke-linecap="round" stroke-linejoin="round" stroke-width="7"/><path d="M122.73,271.82S88.06,245.4,95,191.72s73.57-76.13,104.28-35.1" fill="none" stroke="#0e0d0d" stroke-linecap="round" stroke-linejoin="round" stroke-width="7"/><path d="M240.65,215.2s-18.65,8-43.94,1.81c0,0,3,26.51,18.23,23.91C238.51,236.9,240.65,215.2,240.65,215.2Z" fill="#0e0d0d"/><path d="M265.87,207.72s7.23-1,26.84-12.39c0,0,5.43,16.51-3.1,22.2C277.22,225.78,265.87,207.72,265.87,207.72Z" fill="#0e0d0d"/><path d="M221.05,261s23,11.71,43.23,3.16,23.27-27.28,23.27-27.28,2.24,46.25-32.12,51.34C221.46,293.26,221.05,261,221.05,261Z" fill="#feffff" stroke="#0e0d0d" stroke-linecap="round" stroke-linejoin="round" stroke-width="3.85"/><path d="M204.85,150.44s3.06-38.2-22.23-52.14c0,0-9.29,1.55-10.32,8.77,0,0,26.88,24.26,23.76,45.94C196.06,153,197.66,172.14,204.85,150.44Z" fill="#0e0d0d"/><path d="M188.63,113.78s-2.72-21.48,13.24-20.64c9.84.52,1.55,17.55-5.16,8.26s2.6-18.58,2.6-18.58" fill="none" stroke="#0e0d0d" stroke-linecap="round" stroke-linejoin="round" stroke-width="7"/><path d="M152.84,135.48s24-28.08,80.37-12.5" fill="none" stroke="#0e0d0d" stroke-linecap="round" stroke-linejoin="round" stroke-width="7"/></svg>