<svg id="Layer_1" data-name="Layer 1" xmlns="http://www.w3.org/2000/svg" viewBox="0 0 400 400"><title>Halloween Isometric Icons Set - Scene 11</title><path d="M128.14,352.7c-16.17,0-26.93-5.92-30.3-16.68a3.23,3.23,0,0,1,4.59-3.83,27.7,27.7,0,0,0,11.16,2.69c6.22,0,10.64-2.9,13.5-8.87,2.63-5.47,1.75-12.22.83-19.37-1.39-10.76-3-23.48,7.12-35.37a29.63,29.63,0,0,0-2.95,2.48,3.24,3.24,0,0,1-5.38-3.1c.2-.84,5.25-20.56,29.52-32.09a55.24,55.24,0,0,1,23.71-5.69,43.15,43.15,0,0,1,5.94.4,16.35,16.35,0,0,1,.22-4.13c.7-3.94,2.58-6.71,5.35-8a24,24,0,0,1-.85-2.38c-2.59-8.65-4.71-25.39,9.86-41a8.92,8.92,0,0,1,2-3.18,10,10,0,0,1,7.3-2.75c6.1,0,13.94,4.05,20.47,10.58,7.33,7.33,11.36,16,10.44,22.33.84,4.8.7,15.69-13.69,26.28a22.81,22.81,0,0,1-9.12,4,9.16,9.16,0,0,1,.05,3.42c-.54,3.06-2.61,5.79-6.14,8.09-.42.27-.84.53-1.27.77a33.39,33.39,0,0,1,3.13,5.12c8.92,18,1.09,65.11-33.56,84.8C162.81,347.07,143.88,352.7,128.14,352.7Z" fill="#181819"/><path d="M209.78,175.06c5.06,0,12.08,3.53,18.18,9.63,6.9,6.9,10.51,15,9.44,20.07.91,4.23,1,13.83-12.32,23.65a20,20,0,0,1-11.86,3.86h-.13c2.73,3.64,2.64,7.84-3.07,11.57a14.09,14.09,0,0,1-4.93,2.09,31,31,0,0,1,5.66,7.95c8.26,16.68.84,61.73-32.26,80.55-17.14,9.74-35.62,15-50.35,15-13.69,0-24.13-4.57-27.21-14.4a30.73,30.73,0,0,0,12.66,3.06c5.84,0,12.37-2.27,16.42-10.71,8.75-18.24-15.46-44,21.11-64.81h-.59a30.88,30.88,0,0,0-20.68,8.82s4.61-18.92,27.77-29.92a52.07,52.07,0,0,1,22.32-5.38,39.85,39.85,0,0,1,10.22,1.3,13.64,13.64,0,0,1-.88-7.7c.58-3.25,2.23-6.26,6.32-6.26a8.13,8.13,0,0,1,.84,0,20.15,20.15,0,0,1-2.74-5.7c-2.81-9.37-3.89-24.31,9.6-38.33a5.93,5.93,0,0,1,1.47-2.6,6.85,6.85,0,0,1,5-1.8m0-6.48a13.21,13.21,0,0,0-9.59,3.7,11.89,11.89,0,0,0-2.5,3.71c-15.23,16.62-13,34.42-10.19,43.66,0,0,0,.1,0,.14a14.64,14.64,0,0,0-4.63,8.79c-.07.37-.12.76-.17,1.14-.93-.06-1.86-.08-2.8-.08a58.44,58.44,0,0,0-25.1,6c-25.64,12.18-31.06,33.34-31.28,34.24a6.49,6.49,0,0,0,3,7.14l.62.31c-5,10.48-3.64,21.06-2.52,29.72.9,6.95,1.67,13-.54,17.56-2.3,4.8-5.66,7-10.58,7a24.14,24.14,0,0,1-9.69-2.35A6.47,6.47,0,0,0,94.76,337c3.76,12,15.93,18.95,33.38,18.95,16.28,0,35.8-5.79,53.55-15.89,16.09-9.14,28.39-25,34.61-44.75,5.25-16.61,5.35-34,.25-44.29-.47-.95-1-1.88-1.53-2.78,3.43-2.61,5.48-5.7,6.1-9.21a13.12,13.12,0,0,0,.17-1.51,26.29,26.29,0,0,0,7.62-3.89c15.35-11.3,15.9-23.24,15-29,.82-7.33-3.45-16.59-11.41-24.56-7.22-7.22-15.73-11.53-22.76-11.53Z" fill="#0e0d0d"/><path d="M129.85,271.41s4.61-18.92,27.77-29.92,44.87-4.29,53.13,12.39.84,61.73-32.26,80.55-71.18,21-77.56.63c0,0,20.32,10.6,29.08-7.65s-15.46-44,21.11-64.81C151.12,262.6,139.87,261.85,129.85,271.41Z" fill="#181819" stroke="#0e0d0d" stroke-linecap="round" stroke-linejoin="round" stroke-width="3.85"/><path d="M140.79,315.69s-2.12-33.49,19-45.35c0,0,13.29-3,14.24,6.16C174.05,276.5,146.63,286.47,140.79,315.69Z" fill="#feffff" stroke="#0e0d0d" stroke-linecap="round" stroke-linejoin="round" stroke-width="3.85"/><path d="M195.08,243.53a14,14,0,0,1-5.8-13.82c.68-3.81,2.81-7.29,8.62-6,11.61,2.58,24,12.39,12.12,20.13C204,247.77,198.77,246.11,195.08,243.53Z" fill="#181819" stroke="#0e0d0d" stroke-linecap="round" stroke-linejoin="round" stroke-width="3.85"/><path d="M193.7,217.79c-3-10.16-4.07-26.86,13.31-41.85l29.67,26.56s6.27,12.75-11.6,25.91a20.22,20.22,0,0,1-20.37,2h0A20.26,20.26,0,0,1,193.7,217.79Z" fill="#181819" stroke="#0e0d0d" stroke-linecap="round" stroke-linejoin="round" stroke-width="3.85"/><ellipse cx="220.28" cy="192.37" rx="10.86" ry="21.93" transform="translate(-71.51 212.1) rotate(-45)" stroke-width="3.85" stroke="#0e0d0d" stroke-linecap="round" stroke-linejoin="round" fill="#181819"/><path d="M218.54,189.52s23.22-44.91,40.26-77.81,31.74-61.16,31.74-61.16,8.13-.77,8.51,8.9S291.7,71.07,289,73.78s-1.94,9.67-.77,15.09-8.91,4.26-14.71,16.65-48,88.26-48,88.26S215.83,202.29,218.54,189.52Z" fill="#0e0d0d"/></svg>